<svg width="27" height="25" viewBox="0 0 27 25" fill="none" xmlns="http://www.w3.org/2000/svg">
<g clip-path="url(#clip0_91_728)">
<path d="M26.3741 0L14.7887 8.46656L16.9431 3.47698L26.3741 0Z" fill="#E17726"/>
<path d="M0.652904 0.0100098L10.0587 3.47761L12.1044 8.53261L0.652904 0.0100098ZM21.7117 18.0061L26.8324 18.1023L25.0428 24.1067L18.7945 22.4076L21.7117 18.0061ZM5.28804 18.0061L8.19445 22.4076L1.95671 24.1068L0.177979 18.1023L5.28804 18.0061Z" fill="#E27625"/>
<path d="M11.8263 7.24489L12.0356 13.9202L5.7738 13.6388L7.55496 10.9849L7.57753 10.9594L11.8263 7.24489ZM15.1088 7.17041L19.4225 10.9596L19.4449 10.985L21.226 13.639L14.9656 13.9202L15.1088 7.17041ZM8.37793 18.0253L11.797 20.6565L7.82528 22.5503L8.37793 18.0253ZM18.6227 18.0249L19.1639 22.5504L15.2032 20.6562L18.6227 18.0249Z" fill="#E27625"/>
<path d="M15.2907 20.4084L19.3098 22.3305L15.5712 24.0853L15.61 22.9255L15.2907 20.4084ZM11.7082 20.4093L11.4014 22.9066L11.4266 24.084L7.67932 22.3305L11.7082 20.4093Z" fill="#D5BFB2"/>
<path d="M10.5477 14.7915L11.5979 16.9715L8.02222 15.9369L10.5477 14.7915ZM16.4523 14.7917L18.9897 15.9369L15.4023 16.9712L16.4523 14.7917Z" fill="#233447"/>
<path d="M8.65112 18.003L8.07315 22.6947L4.97522 18.1056L8.65112 18.003ZM18.349 18.0031L22.025 18.1056L18.9154 22.6949L18.349 18.0031ZM21.3164 13.3735L18.6412 16.0663L16.5786 15.1354L15.5911 17.1858L14.9437 13.6599L21.3164 13.3735ZM5.68207 13.3735L12.0561 13.6599L11.4086 17.1858L10.4209 15.1357L8.3692 16.0665L5.68207 13.3735Z" fill="#CC6228"/>
<path d="M5.50183 12.8211L8.52857 15.8545L8.63341 18.8492L5.50183 12.8211ZM21.5011 12.8157L18.3639 18.8545L18.482 15.8545L21.5011 12.8157ZM11.9081 13.0059L12.0299 13.7632L12.3309 15.6497L12.1374 21.444L11.2225 16.7893L11.2221 16.7412L11.9081 13.0059ZM15.0902 12.9954L15.778 16.7412L15.7777 16.7893L14.8604 21.4557L14.8241 20.2885L14.681 15.6154L15.0902 12.9954Z" fill="#E27525"/>
<path d="M18.7511 15.7339L18.6487 18.3358L15.4557 20.7927L14.8103 20.3423L15.5338 16.6616L18.7511 15.7339ZM8.26001 15.7339L11.4662 16.6616L12.1897 20.3423L11.5442 20.7927L8.35113 18.3356L8.26001 15.7339Z" fill="#F5841F"/>
<path d="M7.06836 21.7561L11.1534 23.6678L11.1361 22.8514L11.4779 22.5551H15.5209L15.8751 22.8504L15.8489 23.6661L19.9081 21.7609L17.9329 23.373L15.5446 24.9931H11.4451L9.05834 23.3663L7.06836 21.7561Z" fill="#C0AC9D"/>
<path d="M14.9981 20.1541L15.5756 20.5571L15.9141 23.2242L15.4243 22.8157H11.5772L11.0967 23.2324L11.4241 20.5573L12.0018 20.1541H14.9981Z" fill="#161616"/>
<path d="M25.6093 0.234375L27 4.3549L26.1315 8.52125L26.7499 8.9924L25.913 9.62302L26.5421 10.1028L25.7092 10.8519L26.2205 11.2176L24.8635 12.7828L19.2979 11.1823L19.2497 11.1568L15.2391 7.81531L25.6093 0.234375ZM1.39071 0.234375L11.761 7.81531L7.75027 11.1568L7.70207 11.1823L2.13648 12.7828L0.779519 11.2176L1.29041 10.8522L0.458051 10.1028L1.0858 9.62354L0.236355 8.99115L0.878133 8.51969L0 4.3551L1.39071 0.234375Z" fill="#763E1A"/>
<path d="M19.0257 10.8323L24.9228 12.5281L26.8386 18.3599H21.7841L18.3015 18.4033L20.8343 13.5274L19.0257 10.8323ZM7.97426 10.8323L6.16536 13.5274L8.69841 18.4033L5.21741 18.3599H0.171997L2.07708 12.5282L7.97426 10.8323ZM17.2319 3.44922L15.5825 7.84911L15.2324 13.7929L15.0985 15.6559L15.0878 20.4151H11.912L11.9017 15.6648L11.7673 13.7913L11.4172 7.84911L9.76797 3.44922H17.2319Z" fill="#F5841F"/>
</g>
<defs>
<clipPath id="clip0_91_728">
<rect width="27" height="25" fill="white"/>
</clipPath>
</defs>
</svg>
