<svg width="26" height="26" viewBox="0 0 26 26" fill="none" xmlns="http://www.w3.org/2000/svg">
<path d="M13 12.9999H9.75C8.02609 12.9999 6.37279 12.3151 5.15381 11.0961C3.93482 9.87713 3.25 8.22383 3.25 6.49992V4.33325H6.5C8.22391 4.33325 9.87721 5.01807 11.0962 6.23706C12.3152 7.45604 13 9.10934 13 10.8333V21.6666M13 15.1666C13 13.4427 13.6848 11.7894 14.9038 10.5704C16.1228 9.35141 17.7761 8.66659 19.5 8.66659H22.75V9.74992C22.75 11.4738 22.0652 13.1271 20.8462 14.3461C19.6272 15.5651 17.9739 16.2499 16.25 16.2499H13" stroke="#C49FF4" stroke-width="2" stroke-linecap="round" stroke-linejoin="round"/>
</svg>
